# Blender 5.1.2
# www.blender.org
mtllib axings.mtl
o obj_0
v 22.821747 -0.037463 -2.196639
v 22.820402 -0.031523 -2.046346
v 22.710661 0.061511 -2.051004
v 22.712006 0.055571 -2.201296
v 22.651728 -0.237694 -2.190245
v 22.650385 -0.231755 -2.039953
v 22.772730 0.346856 -2.262445
v 22.541986 -0.144661 -2.194903
v 22.880680 0.261742 -2.057397
v 22.770939 0.354776 -2.062055
v 22.772282 0.348836 -2.212348
v 22.540644 -0.138721 -2.044610
v 22.602711 0.146625 -2.256052
v 22.517702 0.046509 -2.252855
v 22.518150 0.044529 -2.302953
v 22.603159 0.144645 -2.306149
v 22.773178 0.344876 -2.312543
v 22.687721 0.246740 -2.259248
v 22.688168 0.244761 -2.309346
v 22.613075 0.828169 -2.232714
v 22.613523 0.826189 -2.282812
v 22.712452 0.053591 -2.251394
v 22.712900 0.051611 -2.301491
v 22.542883 -0.148620 -2.295098
v 22.273039 0.427706 -2.219928
v 22.407961 0.139543 -2.257513
v 22.492970 0.239658 -2.260710
v 22.493418 0.237678 -2.310807
v 22.882919 0.251843 -2.307885
v 22.797909 0.151727 -2.304688
v 22.797462 0.153707 -2.254591
v 22.940956 0.555007 -2.068448
v 22.273487 0.425726 -2.270025
v 22.942301 0.549068 -2.218741
v 22.078289 0.420623 -2.221389
v 22.188030 0.327590 -2.216731
v 22.456978 -0.244776 -2.191706
v 22.455633 -0.238837 -2.041414
v 22.663437 0.437910 -2.317200
v 22.553694 0.530944 -2.321858
v 22.468685 0.430828 -2.318661
v 22.578426 0.337794 -2.314004
v 22.188478 0.325610 -2.266828
v 22.078735 0.418644 -2.271486
v 22.383677 0.330712 -2.315465
v 22.298668 0.230596 -2.312268
v 22.408409 0.137563 -2.307610
v 22.018908 0.123398 -2.310533
v 22.795670 0.161626 -2.054200
v 22.018459 0.125378 -2.260435
v 22.103468 0.225494 -2.263632
v 22.103916 0.223514 -2.313729
v 22.298220 0.232576 -2.262171
v 22.528963 0.724093 -2.329713
v 22.528515 0.726073 -2.279615
v 22.468237 0.432808 -2.268564
v 22.443504 0.625957 -2.276418
v 22.577978 0.339774 -2.263906
v 22.443953 0.623977 -2.326516
v 22.273935 0.423746 -2.320122
v 22.358944 0.523862 -2.323319
v 22.358496 0.525841 -2.273222
v 22.662989 0.439890 -2.267103
v 22.553247 0.532924 -2.271761
v 22.188925 0.323630 -2.316926
v 22.383228 0.332692 -2.265367
v 21.933451 0.025263 -2.257238
v 21.931660 0.033182 -2.056848
v 22.016668 0.133298 -2.060045
v 22.833006 0.640121 -2.273496
v 22.638256 0.633039 -2.274957
v 22.698086 0.928284 -2.235911
v 22.696741 0.934224 -2.085618
v 22.611732 0.834108 -2.082422
v 22.528067 0.728053 -2.229517
v 22.515911 0.054428 -2.052465
v 22.213209 0.132460 -2.258974
v 22.322952 0.039427 -2.254316
v 22.600920 0.154544 -2.055661
v 22.638704 0.631059 -2.325055
v 22.685928 0.254660 -2.058858
v 22.831215 0.648041 -2.073106
v 22.916224 0.748157 -2.076303
v 22.636465 0.640959 -2.074567
v 22.661198 0.447809 -2.066713
v 22.551455 0.540843 -2.071370
v 22.213657 0.130481 -2.309071
v 20.825224 0.276035 -2.277056
v 20.823433 0.283955 -2.076666
v 22.576187 0.347694 -2.063516
v 22.466446 0.440727 -2.068174
v 22.491179 0.247578 -2.060319
v 22.381437 0.340612 -2.064977
v 22.323399 0.037447 -2.304414
v 22.406170 0.147462 -2.057122
v 22.296429 0.240496 -2.061780
v 22.236151 -0.052769 -2.050729
v 22.237494 -0.058709 -2.201022
v 22.322504 0.041407 -2.204218
v 22.321159 0.047346 -2.053926
v 22.211418 0.140380 -2.058584
v 22.917568 0.742217 -2.226595
v 22.832560 0.642101 -2.223399
v 22.128201 0.032345 -2.255777
v 22.662540 0.441870 -2.217005
v 22.101677 0.233414 -2.063241
v 22.186686 0.333529 -2.066438
v 22.126410 0.040264 -2.055387
v 22.526724 0.733993 -2.079225
v 22.441713 0.633877 -2.076028
v 22.356705 0.533761 -2.072832
v 20.825672 0.274055 -2.327153
v 20.740662 0.173940 -2.323957
v 22.271696 0.433645 -2.069635
v 20.738422 0.183839 -2.073469
v 20.910233 0.376151 -2.280253
v 20.908442 0.384071 -2.079862
v 20.935413 0.181022 -2.322496
v 20.850403 0.080906 -2.319299
v 20.849957 0.082886 -2.269202
v 21.712175 0.219249 -2.066164
v 21.602434 0.312283 -2.070822
v 21.687443 0.412399 -2.074018
v 21.797186 0.319365 -2.069360
v 20.934965 0.183002 -2.272398
v 21.434208 0.104132 -2.264818
v 21.432417 0.112052 -2.064428
v 21.542158 0.019018 -2.059770
v 21.019974 0.283117 -2.275595
v 21.543949 0.011098 -2.260160
v 22.222231 0.819944 -2.085344
v 20.848164 0.090805 -2.068811
v 22.112490 0.912978 -2.090002
v 22.113832 0.907038 -2.240294
v 22.223574 0.814004 -2.235636
v 20.933174 0.190921 -2.072008
v 21.018183 0.291037 -2.075205
v 21.943815 0.706807 -2.233901
v 22.053556 0.613773 -2.229243
v 22.052212 0.619713 -2.078950
v 21.942471 0.712746 -2.083608
v 21.798977 0.311446 -2.269751
v 21.689236 0.404479 -2.274408
v 21.629406 0.109234 -2.313455
v 21.628958 0.111214 -2.263357
v 21.020422 0.281137 -2.325692
v 21.713966 0.211330 -2.266554
v 21.714415 0.209350 -2.316651
v 21.799425 0.309466 -2.319848
v 21.104982 0.383233 -2.278791
v 21.103191 0.391153 -2.078401
v 21.627167 0.119134 -2.062967
v 21.130163 0.188104 -2.321035
v 21.045155 0.087988 -2.317838
v 22.308584 0.914120 -2.238833
v 22.307240 0.920060 -2.088541
v 21.044706 0.089968 -2.267740
v 21.129715 0.190084 -2.270937
v 22.224022 0.812025 -2.285734
v 20.959698 -0.010148 -2.264544
v 22.054005 0.611793 -2.279341
v 21.214725 0.290199 -2.274134
v 21.967203 0.519597 -2.075754
v 21.968548 0.513657 -2.226046
v 21.042915 0.097887 -2.067350
v 21.127924 0.198003 -2.070547
v 21.883986 0.411561 -2.272947
v 21.882195 0.419481 -2.072557
v 20.957905 -0.002228 -2.064153
v 21.909166 0.216432 -2.315190
v 21.824156 0.116316 -2.311994
v 21.823709 0.118296 -2.261896
v 21.212933 0.298119 -2.073744
v 21.908718 0.218412 -2.265093
v 21.738699 0.018180 -2.258699
v 22.333763 0.718991 -2.281076
v 22.248755 0.618875 -2.277879
v 21.215172 0.288220 -2.324231
v 21.993727 0.318528 -2.268289
v 21.821917 0.126216 -2.061506
v 21.906927 0.226332 -2.064703
v 21.299734 0.390315 -2.277330
v 21.297943 0.398235 -2.076940
v 21.736908 0.026100 -2.058309
v 21.324913 0.195186 -2.319573
v 21.239904 0.095070 -2.316377
v 22.331972 0.726910 -2.080686
v 22.416981 0.827026 -2.083883
v 21.239456 0.097050 -2.266279
v 22.246964 0.626795 -2.077489
v 21.324467 0.197166 -2.269476
v 21.154448 -0.003066 -2.263083
v 22.076944 0.426563 -2.071096
v 21.409475 0.297282 -2.272673
v 21.991936 0.326447 -2.067899
v 21.237665 0.104970 -2.065889
v 21.322674 0.205085 -2.069086
v 22.418325 0.821087 -2.234175
v 22.333317 0.720971 -2.230979
v 21.152657 0.004854 -2.062692
v 21.407684 0.305201 -2.072283
v 21.409924 0.295302 -2.322770
v 21.494484 0.397397 -2.275869
v 21.492693 0.405317 -2.075479
v 21.519665 0.202268 -2.318112
v 22.334211 0.717011 -2.331174
v 21.434656 0.102152 -2.314916
v 22.249203 0.616895 -2.327977
v 21.994175 0.316548 -2.318387
v 21.519217 0.204248 -2.268015
v 21.349199 0.004016 -2.261621
v 22.503334 0.921202 -2.237372
v 22.501991 0.927142 -2.087079
v 21.604225 0.304364 -2.271212
v 22.418774 0.819107 -2.284273
v 21.517426 0.212167 -2.067625
v 21.347406 0.011936 -2.061231
v 21.604673 0.302384 -2.321309
vn 0.6471 0.7620 -0.0243
vn -0.0089 0.0395 0.9992
vn -0.6471 -0.7620 0.0243
vn 0.0089 -0.0395 -0.9992
vn 0.7624 -0.6463 0.0324
vn -0.7624 0.6463 -0.0324
s 0
usemtl color_30377
f 1//1 3//1 2//1
f 1//1 4//1 3//1
f 6//2 3//2 12//2
f 8//3 6//3 12//3
f 8//3 5//3 6//3
f 4//4 5//4 8//4
f 4//4 1//4 5//4
f 2//2 3//2 6//2
f 6//5 5//5 2//5
f 1//5 2//5 5//5
f 32//5 10//5 34//5
f 10//5 11//5 34//5
f 25//4 36//4 35//4
f 37//5 12//5 38//5
f 37//5 8//5 12//5
f 20//6 73//6 72//6
f 20//6 74//6 73//6
f 38//2 12//2 97//2
f 82//2 83//2 74//2
f 97//6 99//6 98//6
f 97//6 100//6 99//6
f 82//5 102//5 83//5
f 82//5 103//5 102//5
f 102//4 103//4 20//4
f 74//2 83//2 73//2
f 98//4 8//4 37//4
f 97//2 12//2 100//2
f 98//3 38//3 97//3
f 98//3 37//3 38//3
f 72//1 73//1 102//1
f 83//1 102//1 73//1
f 10//2 32//2 82//2
f 72//4 102//4 20//4
f 10//2 82//2 85//2
f 8//4 98//4 99//4
f 32//1 103//1 82//1
f 32//1 34//1 103//1
f 131//1 134//1 133//1
f 131//1 135//1 134//1
f 103//4 34//4 105//4
f 105//4 34//4 11//4
f 139//4 138//4 135//4
f 134//4 135//4 138//4
f 140//3 138//3 139//3
f 140//3 141//3 138//3
f 135//6 156//6 155//6
f 135//6 131//6 156//6
f 163//6 139//6 164//6
f 163//6 140//6 139//6
f 187//2 156//2 131//2
f 187//2 188//2 156//2
f 193//2 140//2 163//2
f 188//1 155//1 156//1
f 188//1 198//1 155//1
f 155//4 199//4 135//4
f 155//4 198//4 199//4
f 35//3 163//3 164//3
f 35//3 193//3 163//3
f 139//4 35//4 164//4
f 139//4 25//4 35//4
f 198//6 213//6 212//6
f 198//6 188//6 213//6
f 134//6 141//6 133//6
f 138//6 141//6 134//6
f 109//2 213//2 188//2
f 109//2 74//2 213//2
f 131//2 133//2 141//2
f 140//2 193//2 114//2
f 107//2 114//2 193//2
f 140//2 131//2 141//2
f 74//1 212//1 213//1
f 74//1 20//1 212//1
f 212//4 75//4 198//4
f 212//4 20//4 75//4
usemtl color_40919
f 13//6 15//6 14//6
f 13//6 16//6 15//6
f 18//5 16//5 19//5
f 18//5 13//5 16//5
f 4//5 8//5 22//5
f 39//4 41//4 40//4
f 39//4 42//4 41//4
f 23//5 22//5 24//5
f 24//5 22//5 8//5
f 28//4 46//4 45//4
f 28//4 47//4 46//4
f 46//3 26//3 53//3
f 46//3 47//3 26//3
f 23//4 15//4 16//4
f 54//6 57//6 55//6
f 54//6 59//6 57//6
f 41//3 58//3 56//3
f 41//3 42//3 58//3
f 94//4 15//4 24//4
f 23//4 24//4 15//4
f 33//6 61//6 60//6
f 33//6 62//6 61//6
f 39//1 64//1 63//1
f 39//1 40//1 64//1
f 8//3 78//3 24//3
f 94//3 24//3 78//3
f 28//1 66//1 27//1
f 28//1 45//1 66//1
f 23//1 13//1 22//1
f 23//1 16//1 13//1
f 12//2 3//2 76//2
f 3//2 79//2 76//2
f 80//4 59//4 54//4
f 80//4 40//4 59//4
f 40//4 61//4 59//4
f 40//4 41//4 61//4
f 41//4 60//4 61//4
f 41//4 45//4 60//4
f 26//5 28//5 27//5
f 26//5 47//5 28//5
f 58//5 39//5 63//5
f 58//5 42//5 39//5
f 90//2 86//2 91//2
f 90//2 85//2 86//2
f 27//6 42//6 28//6
f 27//6 58//6 42//6
f 60//3 66//3 33//3
f 60//3 45//3 66//3
f 78//6 47//6 94//6
f 78//6 26//6 47//6
f 95//2 93//2 96//2
f 95//2 92//2 93//2
f 80//1 55//1 71//1
f 80//1 54//1 55//1
f 19//4 28//4 42//4
f 19//4 16//4 28//4
f 15//4 94//4 47//4
f 66//6 46//6 53//6
f 66//6 45//6 46//6
f 28//3 13//3 27//3
f 28//3 16//3 13//3
f 71//5 40//5 80//5
f 71//5 64//5 40//5
f 19//1 58//1 18//1
f 19//1 42//1 58//1
f 56//5 45//5 41//5
f 56//5 66//5 45//5
f 15//1 26//1 14//1
f 15//1 47//1 26//1
f 86//2 109//2 110//2
f 86//2 84//2 109//2
f 91//2 110//2 111//2
f 91//2 86//2 110//2
f 93//2 111//2 114//2
f 93//2 91//2 111//2
f 79//2 90//2 92//2
f 79//2 81//2 90//2
f 95//2 100//2 76//2
f 12//2 76//2 100//2
f 78//3 8//3 99//3
f 206//6 177//6 176//6
f 206//6 208//6 177//6
f 59//4 208//4 206//4
f 59//4 61//4 208//4
f 57//1 206//1 176//1
f 57//1 59//1 206//1
f 61//3 177//3 208//3
f 61//3 62//3 177//3
f 111//2 187//2 190//2
f 111//2 110//2 187//2
usemtl color_6306067
f 22//5 31//5 4//5
f 49//5 4//5 31//5
f 49//5 3//5 4//5
f 67//5 69//5 68//5
f 67//5 50//5 69//5
f 31//4 13//4 18//4
f 31//4 22//4 13//4
f 26//4 77//4 53//4
f 26//4 78//4 77//4
f 3//2 81//2 79//2
f 3//2 49//2 81//2
f 100//2 96//2 101//2
f 100//2 95//2 96//2
f 100//3 101//3 99//3
f 77//3 99//3 101//3
f 77//3 78//3 99//3
f 77//4 50//4 51//4
f 77//4 104//4 50//4
f 108//2 106//2 69//2
f 108//2 101//2 106//2
f 104//5 101//5 108//5
f 104//5 77//5 101//5
f 50//3 108//3 69//3
f 50//3 104//3 108//3
f 126//3 128//3 127//3
f 126//3 130//3 128//3
f 130//5 152//5 128//5
f 130//5 145//5 152//5
f 157//4 120//4 125//4
f 157//4 160//4 120//4
f 169//2 136//2 132//2
f 169//2 165//2 136//2
f 120//3 169//3 132//3
f 120//3 160//3 169//3
f 172//4 145//4 147//4
f 172//4 175//4 145//4
f 160//5 165//5 169//5
f 160//5 157//5 165//5
f 184//2 121//2 152//2
f 184//2 180//2 121//2
f 189//4 157//4 158//4
f 189//4 192//4 157//4
f 145//3 184//3 152//3
f 145//3 175//3 184//3
f 200//2 166//2 165//2
f 200//2 196//2 166//2
f 157//3 200//3 165//3
f 157//3 192//3 200//3
f 192//5 196//5 200//5
f 192//5 189//5 196//5
f 175//5 180//5 184//5
f 175//5 172//5 180//5
f 126//4 189//4 191//4
f 126//4 211//4 189//4
f 217//2 197//2 196//2
f 217//2 127//2 197//2
f 189//3 217//3 196//3
f 189//3 211//3 217//3
f 211//5 127//5 217//5
f 211//5 126//5 127//5
f 50//4 172//4 174//4
f 50//4 67//4 172//4
f 68//2 181//2 180//2
f 68//2 69//2 181//2
f 145//4 126//4 210//4
f 145//4 130//4 126//4
f 128//2 216//2 127//2
f 128//2 152//2 216//2
f 172//3 68//3 180//3
f 172//3 67//3 68//3
usemtl color_8768998
f 70//4 71//4 21//4
f 70//4 63//4 71//4
f 63//4 64//4 71//4
f 75//6 21//6 55//6
f 75//6 20//6 21//6
f 58//4 66//4 56//4
f 58//4 27//4 66//4
f 74//2 84//2 82//2
f 85//2 84//2 86//2
f 85//2 82//2 84//2
f 92//2 91//2 93//2
f 92//2 90//2 91//2
f 63//5 70//5 105//5
f 103//5 105//5 70//5
f 21//4 71//4 55//4
f 103//1 21//1 20//1
f 103//1 70//1 21//1
f 84//2 74//2 109//2
f 13//4 26//4 27//4
f 13//4 14//4 26//4
f 76//2 92//2 95//2
f 76//2 79//2 92//2
f 135//6 159//6 161//6
f 139//6 135//6 161//6
f 161//4 159//4 177//4
f 176//4 177//4 159//4
f 177//4 33//4 161//4
f 190//2 187//2 131//2
f 140//2 190//2 131//2
f 199//1 159//1 135//1
f 199//1 176//1 159//1
f 25//3 161//3 33//3
f 25//3 139//3 161//3
f 199//6 215//6 176//6
f 199//6 198//6 215//6
f 55//4 176//4 215//4
f 55//4 57//4 176//4
f 62//4 33//4 177//4
f 110//2 188//2 187//2
f 110//2 109//2 188//2
f 114//2 190//2 140//2
f 114//2 111//2 190//2
f 75//1 215//1 198//1
f 75//1 55//1 215//1
usemtl color_11031040
f 43//1 35//1 36//1
f 43//1 44//1 35//1
f 36//6 33//6 43//6
f 36//6 25//6 33//6
f 66//4 43//4 33//4
f 66//4 53//4 43//4
f 7//4 58//4 63//4
f 7//4 18//4 58//4
f 96//2 114//2 107//2
f 96//2 93//2 114//2
f 116//6 89//6 117//6
f 116//6 88//6 89//6
f 81//2 85//2 90//2
f 81//2 10//2 85//2
f 121//2 123//2 122//2
f 121//2 124//2 123//2
f 129//4 88//4 116//4
f 129//4 125//4 88//4
f 136//2 117//2 89//2
f 136//2 137//2 117//2
f 7//1 105//1 11//1
f 7//1 63//1 105//1
f 129//1 117//1 137//1
f 129//1 116//1 117//1
f 142//1 123//1 124//1
f 142//1 143//1 123//1
f 150//6 137//6 151//6
f 150//6 129//6 137//6
f 162//4 129//4 150//4
f 162//4 158//4 129//4
f 124//6 167//6 142//6
f 124//6 168//6 167//6
f 166//2 151//2 137//2
f 166//2 173//2 151//2
f 162//1 151//1 173//1
f 162//1 150//1 151//1
f 179//4 142//4 167//4
f 179//4 174//4 142//4
f 182//6 173//6 183//6
f 182//6 162//6 173//6
f 194//4 162//4 182//4
f 194//4 191//4 162//4
f 181//2 168//2 124//2
f 181//2 195//2 168//2
f 197//2 183//2 173//2
f 197//2 201//2 183//2
f 194//1 183//1 201//1
f 194//1 182//1 183//1
f 179//1 168//1 195//1
f 179//1 167//1 168//1
f 203//6 201//6 204//6
f 203//6 194//6 201//6
f 214//4 194//4 203//4
f 214//4 210//4 194//4
f 44//6 179//6 35//6
f 195//6 35//6 179//6
f 195//6 193//6 35//6
f 216//2 204//2 201//2
f 216//2 122//2 204//2
f 214//1 204//1 122//1
f 214//1 203//1 204//1
f 143//6 122//6 123//6
f 143//6 214//6 122//6
f 43//4 179//4 44//4
f 43//4 51//4 179//4
f 142//4 214//4 143//4
f 142//4 147//4 214//4
f 106//2 193//2 195//2
f 106//2 107//2 193//2
usemtl color_14057491
f 10//1 9//1 11//1
f 7//1 11//1 29//1
f 17//6 18//6 7//6
f 17//6 19//6 18//6
f 30//5 29//5 31//5
f 9//5 31//5 29//5
f 9//5 49//5 31//5
f 48//5 51//5 50//5
f 48//5 52//5 51//5
f 29//4 19//4 17//4
f 29//4 30//4 19//4
f 51//6 65//6 52//6
f 51//6 43//6 65//6
f 19//3 31//3 18//3
f 19//3 30//3 31//3
f 9//1 29//1 11//1
f 29//1 17//1 7//1
f 49//2 10//2 81//2
f 49//2 9//2 10//2
f 46//4 52//4 65//4
f 46//4 87//4 52//4
f 52//3 77//3 51//3
f 52//3 87//3 77//3
f 46//1 43//1 53//1
f 46//1 65//1 43//1
f 101//2 107//2 106//2
f 101//2 96//2 107//2
f 87//5 53//5 77//5
f 87//5 46//5 53//5
f 112//6 113//6 88//6
f 88//6 115//6 89//6
f 88//6 113//6 115//6
f 118//4 113//4 112//4
f 118//4 119//4 113//4
f 113//3 119//3 120//3
f 118//1 88//1 125//1
f 118//1 112//1 88//1
f 132//2 89//2 115//2
f 132//2 136//2 89//2
f 120//3 115//3 113//3
f 120//3 132//3 115//3
f 119//5 125//5 120//5
f 119//5 118//5 125//5
f 144//5 147//5 145//5
f 144//5 148//5 147//5
f 146//6 125//6 129//6
f 146//6 118//6 125//6
f 149//6 147//6 142//6
f 149//6 148//6 147//6
f 153//4 118//4 146//4
f 153//4 154//4 118//4
f 118//3 157//3 125//3
f 118//3 154//3 157//3
f 153//1 129//1 158//1
f 153//1 146//1 129//1
f 165//2 137//2 136//2
f 165//2 166//2 137//2
f 170//4 148//4 149//4
f 170//4 171//4 148//4
f 148//3 172//3 147//3
f 148//3 171//3 172//3
f 170//1 142//1 174//1
f 170//1 149//1 142//1
f 154//5 158//5 157//5
f 154//5 153//5 158//5
f 178//6 158//6 162//6
f 178//6 153//6 158//6
f 180//2 124//2 121//2
f 180//2 181//2 124//2
f 185//4 153//4 178//4
f 185//4 186//4 153//4
f 153//3 189//3 158//3
f 153//3 186//3 189//3
f 185//1 162//1 191//1
f 185//1 178//1 162//1
f 196//2 173//2 166//2
f 196//2 197//2 173//2
f 186//5 191//5 189//5
f 186//5 185//5 191//5
f 202//6 191//6 194//6
f 202//6 185//6 191//6
f 171//5 174//5 172//5
f 171//5 170//5 174//5
f 205//4 185//4 202//4
f 205//4 207//4 185//4
f 185//3 126//3 191//3
f 185//3 207//3 126//3
f 209//6 174//6 179//6
f 209//6 170//6 174//6
f 205//1 194//1 210//1
f 205//1 202//1 194//1
f 127//2 201//2 197//2
f 127//2 216//2 201//2
f 52//4 170//4 209//4
f 52//4 48//4 170//4
f 170//3 50//3 174//3
f 170//3 48//3 50//3
f 207//5 210//5 126//5
f 207//5 205//5 210//5
f 218//6 210//6 214//6
f 218//6 205//6 210//6
f 52//1 179//1 51//1
f 52//1 209//1 179//1
f 148//4 205//4 218//4
f 148//4 144//4 205//4
f 205//3 145//3 210//3
f 205//3 144//3 145//3
f 69//2 195//2 181//2
f 69//2 106//2 195//2
f 148//1 214//1 147//1
f 148//1 218//1 214//1
f 152//2 122//2 216//2
f 152//2 121//2 122//2
