# Blender 5.1.2
# www.blender.org
mtllib trust.mtl
o obj_0
v 0.856892 -0.427630 -0.024205
v 0.855548 -0.421690 0.126087
v 0.745807 -0.328657 0.121429
v 0.747150 -0.334596 -0.028863
v 0.686873 -0.627862 -0.017812
v 0.685530 -0.621922 0.132481
v 0.807875 -0.043311 -0.090012
v 0.577132 -0.534828 -0.022470
v 0.915825 -0.128425 0.115036
v 0.806084 -0.035392 0.110378
v 0.807427 -0.041331 -0.039914
v 0.575788 -0.528888 0.127823
v 0.637857 -0.243543 -0.083618
v 0.552847 -0.343658 -0.080422
v 0.553295 -0.345638 -0.130519
v 0.638304 -0.245522 -0.133716
v 0.808323 -0.045291 -0.140109
v 0.722866 -0.143427 -0.086815
v 0.723314 -0.145407 -0.136913
v 0.648221 0.438001 -0.060281
v 0.648669 0.436022 -0.110379
v 0.747598 -0.336576 -0.078961
v 0.748046 -0.338556 -0.129058
v 0.578028 -0.538788 -0.122665
v 0.308184 0.037538 -0.047494
v 0.443106 -0.250625 -0.085080
v 0.528115 -0.150509 -0.088276
v 0.528563 -0.152489 -0.138374
v 0.918064 -0.138325 -0.135452
v 0.833055 -0.238440 -0.132255
v 0.832607 -0.236461 -0.082157
v 0.976102 0.164840 0.103985
v 0.308632 0.035558 -0.097592
v 0.977445 0.158900 -0.046308
v 0.113434 0.030456 -0.048955
v 0.223175 -0.062577 -0.044298
v 0.492123 -0.634944 -0.019273
v 0.490779 -0.629004 0.131020
v 0.698581 0.047743 -0.144767
v 0.588840 0.140776 -0.149425
v 0.503831 0.040661 -0.146228
v 0.613572 -0.052373 -0.141570
v 0.223623 -0.064557 -0.094395
v 0.113882 0.028476 -0.099053
v 0.418822 -0.059455 -0.143032
v 0.333812 -0.159571 -0.139835
v 0.443554 -0.252605 -0.135177
v 0.054053 -0.266769 -0.138099
v 0.830816 -0.228541 0.118233
v 0.053605 -0.264789 -0.088002
v 0.138614 -0.164673 -0.091198
v 0.139062 -0.166653 -0.141296
v 0.333365 -0.157591 -0.089737
v 0.564108 0.333926 -0.157279
v 0.563660 0.335906 -0.107182
v 0.503383 0.042641 -0.096131
v 0.478651 0.235790 -0.103985
v 0.613124 -0.050393 -0.091473
v 0.479098 0.233810 -0.154083
v 0.309080 0.033579 -0.147689
v 0.394089 0.133694 -0.150886
v 0.393641 0.135674 -0.100789
v 0.698134 0.049723 -0.094670
v 0.588392 0.142756 -0.099327
v 0.224071 -0.066537 -0.144493
v 0.418374 -0.057475 -0.092934
v -0.031404 -0.364905 -0.084805
v -0.033196 -0.356985 0.115585
v 0.051813 -0.256869 0.112388
v 0.868152 0.249954 -0.101063
v 0.673401 0.242872 -0.102524
v 0.733230 0.538117 -0.063478
v 0.731887 0.544057 0.086815
v 0.646878 0.443941 0.090012
v 0.563212 0.337886 -0.057084
v 0.551056 -0.335739 0.119968
v 0.248355 -0.257707 -0.086541
v 0.358097 -0.350741 -0.081883
v 0.636065 -0.235623 0.116772
v 0.673849 0.240892 -0.152622
v 0.721074 -0.135507 0.113575
v 0.866361 0.257874 0.099327
v 0.951370 0.357989 0.096130
v 0.671610 0.250792 0.097866
v 0.696342 0.057642 0.105721
v 0.586601 0.150676 0.101063
v 0.248803 -0.259687 -0.136638
v -1.139631 -0.114132 -0.104623
v -1.141423 -0.106212 0.095767
v 0.611333 -0.042474 0.108917
v 0.501592 0.050560 0.104259
v 0.526324 -0.142589 0.112114
v 0.416582 -0.049556 0.107456
v 0.358545 -0.352720 -0.131980
v 0.441315 -0.242705 0.115311
v 0.331573 -0.149671 0.110653
v 0.271296 -0.442937 0.121704
v 0.272640 -0.448876 -0.028589
v 0.357649 -0.348761 -0.031785
v 0.356305 -0.342821 0.118507
v 0.246564 -0.249787 0.113850
v 0.952713 0.352050 -0.054162
v 0.867704 0.251934 -0.050965
v 0.163346 -0.357823 -0.083344
v 0.697686 0.051702 -0.044572
v 0.136823 -0.156754 0.109192
v 0.221832 -0.056638 0.105995
v 0.161555 -0.349903 0.117046
v 0.561868 0.343825 0.093208
v 0.476859 0.243710 0.096405
v 0.391850 0.143594 0.099602
v -1.139183 -0.116112 -0.154720
v -1.224193 -0.216228 -0.151524
v 0.306841 0.043478 0.102798
v -1.226432 -0.206328 0.098964
v -1.054622 -0.014016 -0.107819
v -1.056413 -0.006097 0.092571
v -1.029442 -0.209146 -0.150063
v -1.114451 -0.309261 -0.146866
v -1.114899 -0.307281 -0.096768
v -0.252679 -0.170918 0.106270
v -0.362420 -0.077884 0.101612
v -0.277411 0.022232 0.098415
v -0.167669 -0.070802 0.103073
v -1.029890 -0.207166 -0.099965
v -0.530647 -0.286035 -0.092385
v -0.532438 -0.278116 0.108005
v -0.422697 -0.371149 0.112663
v -0.944881 -0.107050 -0.103162
v -0.420906 -0.379069 -0.087727
v 0.257376 0.429777 0.087089
v -1.116690 -0.299362 0.103622
v 0.147635 0.522811 0.082432
v 0.148979 0.516871 -0.067861
v 0.258720 0.423837 -0.063203
v -1.031681 -0.199246 0.100425
v -0.946672 -0.099130 0.097229
v -0.021040 0.316639 -0.061468
v 0.088702 0.223606 -0.056810
v 0.087358 0.229545 0.093483
v -0.022383 0.322579 0.088825
v -0.165878 -0.078722 -0.097317
v -0.275620 0.014312 -0.101975
v -0.335449 -0.280933 -0.141021
v -0.335896 -0.278953 -0.090924
v -0.944433 -0.109030 -0.153259
v -0.250887 -0.178837 -0.094121
v -0.250439 -0.180817 -0.144218
v -0.165430 -0.080701 -0.147415
v -0.859871 -0.006934 -0.106358
v -0.861663 0.000985 0.094032
v -0.337688 -0.271034 0.109466
v -0.834691 -0.202064 -0.148601
v -0.919700 -0.302179 -0.145405
v 0.343729 0.523953 -0.066400
v 0.342386 0.529893 0.083893
v -0.920148 -0.300199 -0.095307
v -0.835139 -0.200084 -0.098504
v 0.259168 0.421857 -0.113301
v -1.005157 -0.400315 -0.092110
v 0.089149 0.221626 -0.106907
v -0.750130 -0.099968 -0.101701
v 0.002349 0.129430 0.096679
v 0.003692 0.123490 -0.053613
v -0.921940 -0.292280 0.105083
v -0.836931 -0.192164 0.101886
v -0.080869 0.021394 -0.100514
v -0.082660 0.029314 0.099876
v -1.006949 -0.392396 0.108280
v -0.055689 -0.173735 -0.142757
v -0.140698 -0.273851 -0.139560
v -0.141146 -0.271871 -0.089463
v -0.751921 -0.092048 0.098690
v -0.056137 -0.171755 -0.092660
v -0.226155 -0.371987 -0.086266
v 0.368909 0.328824 -0.108643
v 0.283900 0.228708 -0.105446
v -0.749682 -0.101948 -0.151798
v 0.028873 -0.071639 -0.095856
v -0.142937 -0.263951 0.110927
v -0.057928 -0.163836 0.107731
v -0.665121 0.000148 -0.104897
v -0.666912 0.008067 0.095493
v -0.227946 -0.364067 0.114124
v -0.639941 -0.194981 -0.147140
v -0.724950 -0.295097 -0.143944
v 0.367118 0.336743 0.091747
v 0.452127 0.436859 0.088550
v -0.725398 -0.293117 -0.093846
v 0.282109 0.236627 0.094944
v -0.640388 -0.193002 -0.097043
v -0.810407 -0.393233 -0.090649
v 0.112090 0.036396 0.101337
v -0.555379 -0.092886 -0.100239
v 0.027081 -0.063720 0.104534
v -0.727189 -0.285198 0.106544
v -0.642180 -0.185082 0.103347
v 0.453471 0.430919 -0.061742
v 0.368461 0.330804 -0.058545
v -0.812198 -0.385314 0.109741
v -0.557171 -0.084966 0.100151
v -0.554932 -0.094866 -0.150337
v -0.470370 0.007230 -0.103436
v -0.472162 0.015150 0.096954
v -0.445190 -0.187899 -0.145679
v 0.369357 0.326844 -0.158741
v -0.530199 -0.288015 -0.142483
v 0.284348 0.226728 -0.155544
v 0.029320 -0.073619 -0.145954
v -0.445638 -0.185919 -0.095582
v -0.615656 -0.386151 -0.089188
v 0.538480 0.531035 -0.064939
v 0.537136 0.536975 0.085354
v -0.360629 -0.085804 -0.098778
v 0.453918 0.428939 -0.111840
v -0.447429 -0.178000 0.104808
v -0.617448 -0.378231 0.111202
v -0.360181 -0.087784 -0.148876
vn 0.6471 0.7620 -0.0243
vn -0.0089 0.0395 0.9992
vn -0.6471 -0.7620 0.0243
vn 0.0089 -0.0395 -0.9992
vn 0.7624 -0.6463 0.0324
vn -0.7624 0.6463 -0.0324
s 0
usemtl color_30377
f 1//1 3//1 2//1
f 1//1 4//1 3//1
f 6//2 3//2 12//2
f 8//3 6//3 12//3
f 8//3 5//3 6//3
f 4//4 5//4 8//4
f 4//4 1//4 5//4
f 2//2 3//2 6//2
f 6//5 5//5 2//5
f 1//5 2//5 5//5
f 32//5 10//5 34//5
f 10//5 11//5 34//5
f 25//4 36//4 35//4
f 37//5 12//5 38//5
f 37//5 8//5 12//5
f 20//6 73//6 72//6
f 20//6 74//6 73//6
f 38//2 12//2 97//2
f 82//2 83//2 74//2
f 97//6 99//6 98//6
f 97//6 100//6 99//6
f 82//5 102//5 83//5
f 82//5 103//5 102//5
f 102//4 103//4 20//4
f 74//2 83//2 73//2
f 98//4 8//4 37//4
f 97//2 12//2 100//2
f 98//3 38//3 97//3
f 98//3 37//3 38//3
f 72//1 73//1 102//1
f 83//1 102//1 73//1
f 10//2 32//2 82//2
f 72//4 102//4 20//4
f 10//2 82//2 85//2
f 8//4 98//4 99//4
f 32//1 103//1 82//1
f 32//1 34//1 103//1
f 131//1 134//1 133//1
f 131//1 135//1 134//1
f 103//4 34//4 105//4
f 105//4 34//4 11//4
f 139//4 138//4 135//4
f 134//4 135//4 138//4
f 140//3 138//3 139//3
f 140//3 141//3 138//3
f 135//6 156//6 155//6
f 135//6 131//6 156//6
f 163//6 139//6 164//6
f 163//6 140//6 139//6
f 187//2 156//2 131//2
f 187//2 188//2 156//2
f 193//2 140//2 163//2
f 188//1 155//1 156//1
f 188//1 198//1 155//1
f 155//4 199//4 135//4
f 155//4 198//4 199//4
f 35//3 163//3 164//3
f 35//3 193//3 163//3
f 139//4 35//4 164//4
f 139//4 25//4 35//4
f 198//6 213//6 212//6
f 198//6 188//6 213//6
f 134//6 141//6 133//6
f 138//6 141//6 134//6
f 109//2 213//2 188//2
f 109//2 74//2 213//2
f 131//2 133//2 141//2
f 140//2 193//2 114//2
f 107//2 114//2 193//2
f 140//2 131//2 141//2
f 74//1 212//1 213//1
f 74//1 20//1 212//1
f 212//4 75//4 198//4
f 212//4 20//4 75//4
usemtl color_40919
f 13//6 15//6 14//6
f 13//6 16//6 15//6
f 18//5 16//5 19//5
f 18//5 13//5 16//5
f 4//5 8//5 22//5
f 39//4 41//4 40//4
f 39//4 42//4 41//4
f 23//5 22//5 24//5
f 24//5 22//5 8//5
f 28//4 46//4 45//4
f 28//4 47//4 46//4
f 46//3 26//3 53//3
f 46//3 47//3 26//3
f 23//4 15//4 16//4
f 54//6 57//6 55//6
f 54//6 59//6 57//6
f 41//3 58//3 56//3
f 41//3 42//3 58//3
f 94//4 15//4 24//4
f 23//4 24//4 15//4
f 33//6 61//6 60//6
f 33//6 62//6 61//6
f 39//1 64//1 63//1
f 39//1 40//1 64//1
f 8//3 78//3 24//3
f 94//3 24//3 78//3
f 28//1 66//1 27//1
f 28//1 45//1 66//1
f 23//1 13//1 22//1
f 23//1 16//1 13//1
f 12//2 3//2 76//2
f 3//2 79//2 76//2
f 80//4 59//4 54//4
f 80//4 40//4 59//4
f 40//4 61//4 59//4
f 40//4 41//4 61//4
f 41//4 60//4 61//4
f 41//4 45//4 60//4
f 26//5 28//5 27//5
f 26//5 47//5 28//5
f 58//5 39//5 63//5
f 58//5 42//5 39//5
f 90//2 86//2 91//2
f 90//2 85//2 86//2
f 27//6 42//6 28//6
f 27//6 58//6 42//6
f 60//3 66//3 33//3
f 60//3 45//3 66//3
f 78//6 47//6 94//6
f 78//6 26//6 47//6
f 95//2 93//2 96//2
f 95//2 92//2 93//2
f 80//1 55//1 71//1
f 80//1 54//1 55//1
f 19//4 28//4 42//4
f 19//4 16//4 28//4
f 15//4 94//4 47//4
f 66//6 46//6 53//6
f 66//6 45//6 46//6
f 28//3 13//3 27//3
f 28//3 16//3 13//3
f 71//5 40//5 80//5
f 71//5 64//5 40//5
f 19//1 58//1 18//1
f 19//1 42//1 58//1
f 56//5 45//5 41//5
f 56//5 66//5 45//5
f 15//1 26//1 14//1
f 15//1 47//1 26//1
f 86//2 109//2 110//2
f 86//2 84//2 109//2
f 91//2 110//2 111//2
f 91//2 86//2 110//2
f 93//2 111//2 114//2
f 93//2 91//2 111//2
f 79//2 90//2 92//2
f 79//2 81//2 90//2
f 95//2 100//2 76//2
f 12//2 76//2 100//2
f 78//3 8//3 99//3
f 206//6 177//6 176//6
f 206//6 208//6 177//6
f 59//4 208//4 206//4
f 59//4 61//4 208//4
f 57//1 206//1 176//1
f 57//1 59//1 206//1
f 61//3 177//3 208//3
f 61//3 62//3 177//3
f 111//2 187//2 190//2
f 111//2 110//2 187//2
usemtl color_6306067
f 22//5 31//5 4//5
f 49//5 4//5 31//5
f 49//5 3//5 4//5
f 67//5 69//5 68//5
f 67//5 50//5 69//5
f 31//4 13//4 18//4
f 31//4 22//4 13//4
f 26//4 77//4 53//4
f 26//4 78//4 77//4
f 3//2 81//2 79//2
f 3//2 49//2 81//2
f 100//2 96//2 101//2
f 100//2 95//2 96//2
f 100//3 101//3 99//3
f 77//3 99//3 101//3
f 77//3 78//3 99//3
f 77//4 50//4 51//4
f 77//4 104//4 50//4
f 108//2 106//2 69//2
f 108//2 101//2 106//2
f 104//5 101//5 108//5
f 104//5 77//5 101//5
f 50//3 108//3 69//3
f 50//3 104//3 108//3
f 126//3 128//3 127//3
f 126//3 130//3 128//3
f 130//5 152//5 128//5
f 130//5 145//5 152//5
f 157//4 120//4 125//4
f 157//4 160//4 120//4
f 169//2 136//2 132//2
f 169//2 165//2 136//2
f 120//3 169//3 132//3
f 120//3 160//3 169//3
f 172//4 145//4 147//4
f 172//4 175//4 145//4
f 160//5 165//5 169//5
f 160//5 157//5 165//5
f 184//2 121//2 152//2
f 184//2 180//2 121//2
f 189//4 157//4 158//4
f 189//4 192//4 157//4
f 145//3 184//3 152//3
f 145//3 175//3 184//3
f 200//2 166//2 165//2
f 200//2 196//2 166//2
f 157//3 200//3 165//3
f 157//3 192//3 200//3
f 192//5 196//5 200//5
f 192//5 189//5 196//5
f 175//5 180//5 184//5
f 175//5 172//5 180//5
f 126//4 189//4 191//4
f 126//4 211//4 189//4
f 217//2 197//2 196//2
f 217//2 127//2 197//2
f 189//3 217//3 196//3
f 189//3 211//3 217//3
f 211//5 127//5 217//5
f 211//5 126//5 127//5
f 50//4 172//4 174//4
f 50//4 67//4 172//4
f 68//2 181//2 180//2
f 68//2 69//2 181//2
f 145//4 126//4 210//4
f 145//4 130//4 126//4
f 128//2 216//2 127//2
f 128//2 152//2 216//2
f 172//3 68//3 180//3
f 172//3 67//3 68//3
usemtl color_8768998
f 70//4 71//4 21//4
f 70//4 63//4 71//4
f 63//4 64//4 71//4
f 75//6 21//6 55//6
f 75//6 20//6 21//6
f 58//4 66//4 56//4
f 58//4 27//4 66//4
f 74//2 84//2 82//2
f 85//2 84//2 86//2
f 85//2 82//2 84//2
f 92//2 91//2 93//2
f 92//2 90//2 91//2
f 63//5 70//5 105//5
f 103//5 105//5 70//5
f 21//4 71//4 55//4
f 103//1 21//1 20//1
f 103//1 70//1 21//1
f 84//2 74//2 109//2
f 13//4 26//4 27//4
f 13//4 14//4 26//4
f 76//2 92//2 95//2
f 76//2 79//2 92//2
f 135//6 159//6 161//6
f 139//6 135//6 161//6
f 161//4 159//4 177//4
f 176//4 177//4 159//4
f 177//4 33//4 161//4
f 190//2 187//2 131//2
f 140//2 190//2 131//2
f 199//1 159//1 135//1
f 199//1 176//1 159//1
f 25//3 161//3 33//3
f 25//3 139//3 161//3
f 199//6 215//6 176//6
f 199//6 198//6 215//6
f 55//4 176//4 215//4
f 55//4 57//4 176//4
f 62//4 33//4 177//4
f 110//2 188//2 187//2
f 110//2 109//2 188//2
f 114//2 190//2 140//2
f 114//2 111//2 190//2
f 75//1 215//1 198//1
f 75//1 55//1 215//1
usemtl color_11031040
f 43//1 35//1 36//1
f 43//1 44//1 35//1
f 36//6 33//6 43//6
f 36//6 25//6 33//6
f 66//4 43//4 33//4
f 66//4 53//4 43//4
f 7//4 58//4 63//4
f 7//4 18//4 58//4
f 96//2 114//2 107//2
f 96//2 93//2 114//2
f 116//6 89//6 117//6
f 116//6 88//6 89//6
f 81//2 85//2 90//2
f 81//2 10//2 85//2
f 121//2 123//2 122//2
f 121//2 124//2 123//2
f 129//4 88//4 116//4
f 129//4 125//4 88//4
f 136//2 117//2 89//2
f 136//2 137//2 117//2
f 7//1 105//1 11//1
f 7//1 63//1 105//1
f 129//1 117//1 137//1
f 129//1 116//1 117//1
f 142//1 123//1 124//1
f 142//1 143//1 123//1
f 150//6 137//6 151//6
f 150//6 129//6 137//6
f 162//4 129//4 150//4
f 162//4 158//4 129//4
f 124//6 167//6 142//6
f 124//6 168//6 167//6
f 166//2 151//2 137//2
f 166//2 173//2 151//2
f 162//1 151//1 173//1
f 162//1 150//1 151//1
f 179//4 142//4 167//4
f 179//4 174//4 142//4
f 182//6 173//6 183//6
f 182//6 162//6 173//6
f 194//4 162//4 182//4
f 194//4 191//4 162//4
f 181//2 168//2 124//2
f 181//2 195//2 168//2
f 197//2 183//2 173//2
f 197//2 201//2 183//2
f 194//1 183//1 201//1
f 194//1 182//1 183//1
f 179//1 168//1 195//1
f 179//1 167//1 168//1
f 203//6 201//6 204//6
f 203//6 194//6 201//6
f 214//4 194//4 203//4
f 214//4 210//4 194//4
f 44//6 179//6 35//6
f 195//6 35//6 179//6
f 195//6 193//6 35//6
f 216//2 204//2 201//2
f 216//2 122//2 204//2
f 214//1 204//1 122//1
f 214//1 203//1 204//1
f 143//6 122//6 123//6
f 143//6 214//6 122//6
f 43//4 179//4 44//4
f 43//4 51//4 179//4
f 142//4 214//4 143//4
f 142//4 147//4 214//4
f 106//2 193//2 195//2
f 106//2 107//2 193//2
usemtl color_14057491
f 10//1 9//1 11//1
f 7//1 11//1 29//1
f 17//6 18//6 7//6
f 17//6 19//6 18//6
f 30//5 29//5 31//5
f 9//5 31//5 29//5
f 9//5 49//5 31//5
f 48//5 51//5 50//5
f 48//5 52//5 51//5
f 29//4 19//4 17//4
f 29//4 30//4 19//4
f 51//6 65//6 52//6
f 51//6 43//6 65//6
f 19//3 31//3 18//3
f 19//3 30//3 31//3
f 9//1 29//1 11//1
f 29//1 17//1 7//1
f 49//2 10//2 81//2
f 49//2 9//2 10//2
f 46//4 52//4 65//4
f 46//4 87//4 52//4
f 52//3 77//3 51//3
f 52//3 87//3 77//3
f 46//1 43//1 53//1
f 46//1 65//1 43//1
f 101//2 107//2 106//2
f 101//2 96//2 107//2
f 87//5 53//5 77//5
f 87//5 46//5 53//5
f 112//6 113//6 88//6
f 88//6 115//6 89//6
f 88//6 113//6 115//6
f 118//4 113//4 112//4
f 118//4 119//4 113//4
f 113//3 119//3 120//3
f 118//1 88//1 125//1
f 118//1 112//1 88//1
f 132//2 89//2 115//2
f 132//2 136//2 89//2
f 120//3 115//3 113//3
f 120//3 132//3 115//3
f 119//5 125//5 120//5
f 119//5 118//5 125//5
f 144//5 147//5 145//5
f 144//5 148//5 147//5
f 146//6 125//6 129//6
f 146//6 118//6 125//6
f 149//6 147//6 142//6
f 149//6 148//6 147//6
f 153//4 118//4 146//4
f 153//4 154//4 118//4
f 118//3 157//3 125//3
f 118//3 154//3 157//3
f 153//1 129//1 158//1
f 153//1 146//1 129//1
f 165//2 137//2 136//2
f 165//2 166//2 137//2
f 170//4 148//4 149//4
f 170//4 171//4 148//4
f 148//3 172//3 147//3
f 148//3 171//3 172//3
f 170//1 142//1 174//1
f 170//1 149//1 142//1
f 154//5 158//5 157//5
f 154//5 153//5 158//5
f 178//6 158//6 162//6
f 178//6 153//6 158//6
f 180//2 124//2 121//2
f 180//2 181//2 124//2
f 185//4 153//4 178//4
f 185//4 186//4 153//4
f 153//3 189//3 158//3
f 153//3 186//3 189//3
f 185//1 162//1 191//1
f 185//1 178//1 162//1
f 196//2 173//2 166//2
f 196//2 197//2 173//2
f 186//5 191//5 189//5
f 186//5 185//5 191//5
f 202//6 191//6 194//6
f 202//6 185//6 191//6
f 171//5 174//5 172//5
f 171//5 170//5 174//5
f 205//4 185//4 202//4
f 205//4 207//4 185//4
f 185//3 126//3 191//3
f 185//3 207//3 126//3
f 209//6 174//6 179//6
f 209//6 170//6 174//6
f 205//1 194//1 210//1
f 205//1 202//1 194//1
f 127//2 201//2 197//2
f 127//2 216//2 201//2
f 52//4 170//4 209//4
f 52//4 48//4 170//4
f 170//3 50//3 174//3
f 170//3 48//3 50//3
f 207//5 210//5 126//5
f 207//5 205//5 210//5
f 218//6 210//6 214//6
f 218//6 205//6 210//6
f 52//1 179//1 51//1
f 52//1 209//1 179//1
f 148//4 205//4 218//4
f 148//4 144//4 205//4
f 205//3 145//3 210//3
f 205//3 144//3 145//3
f 69//2 195//2 181//2
f 69//2 106//2 195//2
f 148//1 214//1 147//1
f 148//1 218//1 214//1
f 152//2 122//2 216//2
f 152//2 121//2 122//2
